<?xml version="1.0" encoding="UTF-8"?>
<svg version="1.1" viewBox="0 0 787.03 544.41" xmlns="http://www.w3.org/2000/svg">
<g transform="matrix(1.3333 0 0 -1.3333 0 544.41)">
<g transform="scale(.1)">
<path d="m4655.1 2423.9c0-916.32-1042.1-1659.1-2327.5-1659.1-1285.5 0-2327.5 742.83-2327.5 1659.1s1042.1 1659.2 2327.5 1659.2c1285.5 0 2327.5-742.83 2327.5-1659.2" fill="#f3f2fa"/>
<path d="m5902.7 234.6c0-81.422-475.7-147.42-1062.5-147.42-586.8 0-1062.5 66-1062.5 147.42 0 81.41 475.7 147.41 1062.5 147.41 586.81 0 1062.5-66 1062.5-147.41" fill="#d9d8e8"/>
<path d="m4532.6 163.47c0-90.278-859.38-163.47-1919.5-163.47-1060.1 0-1919.5 73.191-1919.5 163.47 0 90.269 859.38 163.46 1919.5 163.46 1060.1 0 1919.5-73.192 1919.5-163.46" fill="#d9d8e8"/>
<path d="m2980.1 3060.7s-35.53-206.17-294.35-471.54c0 0-28.59 35.4 20.89 182.06 49.49 146.67 258.7 339.42 273.46 289.48" fill="#63a368"/>
<path d="m2980.1 3060.7s-232.9-166.59-294.35-471.54c0 0-11.9-104.59 23.94-195.2" fill="none" stroke="#040606" stroke-linecap="round" stroke-miterlimit="10" stroke-width="10"/>
<path d="m2354.1 2894.1s65.34 49.52-47.07 173.17c-106.78 117.47-219.83 222.8-440.79 261.39 0 0 66.69-299.29 210.67-370.63s277.19-63.93 277.19-63.93" fill="#63a368"/>
<path d="m1817.8 2674.1s230.54-50.29 621.52 80.19c0 0-24.24 40.42-198.95 54.01-174.7 13.59-468.07-100.62-422.57-134.2" fill="#63a368"/>
<path d="m1817.8 2674.1s276.59 146.42 621.52 80.19c0 0 35.48-8.88 71.61-57.14" fill="none" stroke="#040606" stroke-linecap="round" stroke-miterlimit="10" stroke-width="10"/>
<path d="m2008.9 2465.2s246.69-162.39 637.68-31.92c0 0-76.03 137.56-250.74 151.15-174.71 13.6-432.45-85.64-386.94-119.23" fill="#63a368"/>
<path d="m2008.9 2465.2s265.9 124.07 637.68-31.92c0 0 43.72-19.46 79.85-67.72" fill="none" stroke="#040606" stroke-linecap="round" stroke-miterlimit="10" stroke-width="10"/>
<path d="m2843.9 3255.9s72.81 8.72-104.86-155.64c-167.77-155.19-146.44-156.4-146.44-156.4s63.66 232.23 251.3 312.04" fill="#040606"/>
<path d="m2470.6 2865.3s54.37-20.97 152.45 69.04 134.65 290.61 220.89 321.61c0 0-216.38-69.9-373.34-390.65" fill="#63a368"/>
<path d="m2827.2 2176c-110.63 222.84-264.22 476-473.07 718.11 0 0-51.31 67.2-229.56 241.39-178.26 174.18-258.3 193.17-258.3 193.17" fill="none" stroke="#040606" stroke-linecap="round" stroke-miterlimit="10" stroke-width="10"/>
<path d="m2818.4 3245.2s-205.9-89.85-347.79-379.97c-34.38-70.29 6.75-125.91 40.35-168.13" fill="none" stroke="#040606" stroke-linecap="round" stroke-miterlimit="10" stroke-width="10"/>
<path d="m4695.9 840.15s-172.1-126.99-568.63-33.777c0 0 1.06 63.59 143.37 124.77 142.31 61.168 447.75-32.09 425.26-90.993" fill="#63a368"/>
<path d="m4683.6 851.74s-271.57 90.758-554.53-38.5c0 0-91.66-51.754-143.98-133.95" fill="none" stroke="#040606" stroke-linecap="round" stroke-miterlimit="10" stroke-width="10"/>
<path d="m4122.1 1119.5s78.44-23.83 112.57 139.75c32.42 155.4 51.33 308.76-47.13 510.3 0 0-203.16-229.67-176.4-388.11s110.96-261.94 110.96-261.94" fill="#63a368"/>
<path d="m4705.4 1058.2s60.52-41.4-181.42-48.03c-228.45-6.26-213.2-21.221-213.2-21.221s200.86 132.8 394.62 69.251" fill="#040606"/>
<path d="m4167.2 1010.2s27.1-51.599 160.18-48.478c133.09 3.117 292.74 129.96 378.05 96.478 0 0-208.85 89.94-538.23-48" fill="#63a368"/>
<path d="m3818.4 315.01c115.47 220.37 230.27 493.32 303.69 804.52 0 0 24.28 80.98 60.67 327.54s4.77 322.51 4.77 322.51" fill="none" stroke="#040606" stroke-linecap="round" stroke-miterlimit="10" stroke-width="10"/>
<path d="m4679.2 1067s-214.11 68.03-511.97-56.79c-72.16-30.24-92.65-77.99-123.14-166.52" fill="none" stroke="#040606" stroke-linecap="round" stroke-miterlimit="10" stroke-width="10"/>
<path d="m1953.5 2308.4c-55.7 0-109.62 19.55-152.39 55.23l-118.65 99.01c-42.7 35.63-93.42 54.72-145.39 54.72h-588.87c-53.437 0-96.758-43.32-96.758-96.76v-2131.9c0-92.211 74.754-166.96 166.97-166.96h2935.5c71.72 0 129.86 58.141 129.86 129.86v1926.9c0 71.72-58.14 129.86-129.86 129.86h-2000.4" fill="#293970"/>
<path d="m4083.7 240.71s-199.78 374.75-219.76 417.78l-545.99 1112.3c-13.72 29.56-43.35 48.46-75.94 48.46h-2028.9c-73.76 0-180.44 38.67-237.08 85.93l-81.871 68.31c-42.699 35.63-93.422 54.72-145.38 54.72h-560.41c-59.648 0-100.17-60.6-77.375-115.72l677.66-1639c37.984-91.872 127.6-151.79 227.02-151.79h3031.4c19.76 0 38 16.918 38 36.68l-1.36 82.301" fill="#6576c3"/>
<path d="m3258.5 1713.5 801.18-1557.4" fill="none" stroke="#040606" stroke-linejoin="round" stroke-miterlimit="10" stroke-width="10"/>
<path d="m2928.3 1445.1h-690.13c-18.82 0-36.33 9.46-46.44 25.1-23.32 36.09 3.01 83.31 46.44 83.31h690.13c18.82 0 36.34-9.47 46.44-25.11 23.32-36.08-3-83.3-46.44-83.3z" fill="none" stroke="#040606" stroke-linejoin="round" stroke-miterlimit="10" stroke-width="10"/>
<path d="m1637.4 909.85 537.33-320.13" fill="none" stroke="#040606" stroke-linecap="round" stroke-linejoin="round" stroke-miterlimit="10" stroke-width="10"/>
<path d="m2076.7 925.27-337.64-337.48" fill="none" stroke="#040606" stroke-linecap="round" stroke-linejoin="round" stroke-miterlimit="10" stroke-width="10"/>
<path d="m2073.9 1011.1c197.44-97.57 279.36-292.51 182.98-435.41-96.39-142.89-334.58-179.63-532.02-82.059s-279.36 292.51-182.98 435.41c96.39 142.9 334.58 179.64 532.02 82.059z" fill="none" stroke="#040606" stroke-linecap="round" stroke-linejoin="round" stroke-miterlimit="10" stroke-width="10"/>
<path d="m4681.1 2307.3c12.89 55.7-46.38 125.14-102.49 114.19-45.68-8.91-68.42-19.86-75.76-22.28-14.34-4.73-121.43 2.24-133.69-15.59-8.88-12.92 46.99-27.84 82.72-31.4 7.35-0.73 9.53-10.35 3.24-14.24-35.11-21.77-105.01-66.02-110.95-76.95-7.97-14.65-44.28-71.62-34.05-77.94 10.23-6.33 41.17 22.13 61.27 42.33 20.11 20.2 78.86 37.37 78.86 37.37s-102.16-102.52-115.62-130.95c-20.05-42.34 38.12-23.77 38.12-23.77-9.1-23.92 38.61-18.68 49.89-9.65 22.28 17.82 91.15 100.93 91.35 92.46 0.21-8.46-71.15-99.01-63.92-120.16s36.08 5.38 52.78 27.7c16.7 22.31 65.73 84.67 65.73 84.67s55.7 40.66 102.2 110.89c0.38 0.56 10.17 12.67 10.32 13.32" fill="#f0896f"/>
<path d="m4375.3 2110.4 97.47 116.16" fill="none" stroke="#040606" stroke-linecap="round" stroke-miterlimit="10" stroke-width="10"/>
<path d="m3948.4 2636.8 350.61 218.75c2.18 1.42 4.25 2.99 6.2 4.7l115.62 118.98c25.17 22.05 64 16.91 82.56-10.93l56.67-85.01c12-18 12.41-41.34 1.06-59.75l-81.37-132.03c-5.99-9.72-14.76-17.32-25.25-21.81-65.48-28.04-315.61-133.69-464.82-175.84-37.05-10.47-73.06 19.69-69.81 58.06l3.65 43.21c1.44 16.98 10.61 32.35 24.88 41.67" fill="#7ccf7f"/>
<path d="m4755.9 451.08-18.54-125.95s-347.43-133.46-315.2-135.4c32.23-1.929 531.5 27.122 531.5 27.122l-29.38 228.67-168.38 5.562" fill="#040606"/>
<path d="m4852.7 2489.4s27.69-266.48 48.45-280.32c20.77-13.85 48.45-20.77 48.45-20.77l-44.99 304.55z" fill="none" stroke="#333436" stroke-miterlimit="10" stroke-width="10"/>
<path d="m5401.3 2672.6s140.82-286.76 99.93-446.53l-780.61 107.37 16.28 297.91 664.4 41.25" fill="#040606"/>
<path d="m5422.7 2614.5s-110.34-204.33-321.48-220.67" fill="none" stroke="#333436" stroke-linecap="round" stroke-miterlimit="10" stroke-width="10"/>
<path d="m5246.1 2437.4s42.77-132.45 166.93-135.18" fill="none" stroke="#333436" stroke-linecap="round" stroke-miterlimit="10" stroke-width="10"/>
<path d="m4720.6 2333.4s-209.14-744.56-214.57-984.27l152.81-923.43s145.77-72.48 297.6-13.91c6.22 2.399-76.97 478.94-82.83 969.6l436.45 913.19-589.46 38.82" fill="#040606"/>
<path d="m5504.7 2257.3-30.74-898.5 343.76-939.35s-143.85-121.53-325.55-10.921l-373.23 894.43 38.29 650.81-162.66 98.49-24.22 281.87 534.35-76.83" fill="#040606"/>
<path d="m4900.6 2421.5 165.72-124.85 237.57 265.22-577.08-82.44 141.21-187.24 32.58 129.31" fill="#fff"/>
<path d="m5574.8 466.28-30-108.68s-219.17-237.72-186.88-237.72c32.31 0 392.22 147.16 392.22 147.16l-46.14 226.41-129.2-27.168" fill="#040606"/>
<path d="m5373.2 2545.5s94.81-233.02 26.5-1210.5c0 0 239.43-526.95 363.59-943.74" fill="none" stroke="#333436" stroke-linecap="round" stroke-miterlimit="10" stroke-width="10"/>
<path d="m5024.8 2029-238.95-665.58 102.47-972.18" fill="none" stroke="#333436" stroke-linecap="round" stroke-miterlimit="10" stroke-width="10"/>
<path d="m3982.7 2505.4s4.64-23.31-46.97-41.11-81.98-12.15-81.98-12.15-115.78 136.55-120.92 141.38c-5.13 4.82 3.61 57.34 37.86 78.37 20.8 12.76 101.46-8.05 161.63-26.38 41.94-12.77 67.82-54.78 60.77-98.05-2.77-17.01-6.23-32.77-10.39-42.06" fill="#f0896f"/>
<path d="m3887.7 2541.6s-94.66 13.74-134.66 46.72c0 0-59.78 12.05-72.48 4.5-12.71-7.54-23.11-18.25-50.6-22.88-27.49-4.64-19.2 13.66 9.68 39.63 8.25 7.42 30.32 34.09 49.47 37.7 25.77 4.85 81.54 24.58 81.54 24.58l111.9-133.78" fill="#f0896f"/>
<path d="m3853.8 2452.2s-38.38-24.08-51.88-23.43c-13.5 0.66-26.25 8.7-29.55 30.89 0 0-71.48-13.12-48.83 40.97 0 0-43.18 7-44.33 35.18 0 0-38.35 19.11-29.97 49.75 8.39 30.64 128.72 27.86 128.72 27.86l127.67-64.83-51.83-96.39" fill="#f0896f"/>
<path d="m3826.6 2447s36.45 32.33 34.43 45.29c-2.03 12.97-8.88 20.1-17.16 17.62-11.1-3.33-53.36-35.56-71.59-50.33" fill="none" stroke="#0f1626" stroke-linecap="round" stroke-linejoin="round" stroke-miterlimit="10" stroke-width="7.7986"/>
<path d="m3723.5 2500.6s97.12 15.16 98.02 29.55c0.89 14.38-5.89 33.37-26.18 29.33-24.11-4.81-93.24-21.36-116.17-20.91" fill="none" stroke="#0f1626" stroke-linecap="round" stroke-linejoin="round" stroke-miterlimit="10" stroke-width="7.7986"/>
<path d="m3843.9 2509.9s17.85 11.07 10.79 23.46c-7.06 12.38-16.7 16.73-37.36 11.36" fill="none" stroke="#0f1626" stroke-linecap="round" stroke-linejoin="round" stroke-miterlimit="10" stroke-width="7.7986"/>
<path d="m3677.2 2579.1s5.31 6.91 12.82 13.97" fill="none" stroke="#0f1626" stroke-linecap="round" stroke-linejoin="round" stroke-miterlimit="10" stroke-width="7.7986"/>
<path d="m3887.8 2399-1.66-0.94c-13.08-7.35-29.65-2.71-37 10.37l-252.48 448.93 49.03 27.58 252.48-448.94c7.35-13.08 2.71-29.65-10.37-37" fill="#293970"/>
<path d="m3721.5 2785.2 21.19-37.67c5.74-10.22 3.14-22.59-5.81-27.63l-45.78-25.74c-8.96-5.04-20.88-0.84-26.63 9.38l-22.11 39.31" fill="#293970"/>
<path d="m3623.5 3153.9c-87.58 162.47-197.36 274.31-267.14 279.54l2.31 15.43-36.46-23.77c-62.66-42.67-29.36-233.27 74.38-425.73 103.74-192.45 238.63-313.87 301.29-271.2l34.28 22.85-9.87 13.21c24.12 74.54-13.5 231.44-98.79 389.67" fill="#293970"/>
<path d="m3660 3177.7c103.74-192.45 137.04-383.06 74.38-425.73s-197.55 78.75-301.29 271.2-137.04 383.06-74.38 425.73 197.55-78.75 301.29-271.2" fill="#6576c3"/>
<path d="m3625.4 3154.1c84.42-156.62 117.57-307.63 74.03-337.28s-147.27 73.28-231.69 229.91c-84.43 156.62-117.58 307.63-74.04 337.28s147.27-73.29 231.7-229.91" fill="#c8d7f1"/>
<path d="m3887.7 2541.6s-94.66 13.74-134.66 46.72c0 0-59.78 12.05-72.48 4.5-12.71-7.54-23.11-18.25-50.6-22.88-27.49-4.64-19.2 13.66 9.68 39.63 8.25 7.42 30.32 34.09 49.47 37.7 25.77 4.85 81.54 24.58 81.54 24.58l111.9-133.78" fill="#f0896f"/>
<path d="m3887.7 2541.6s-94.66 13.74-134.66 46.72c0 0-59.78 12.05-72.48 4.5-12.71-7.54-23.11-18.25-50.6-22.88" fill="none" stroke="#0f1626" stroke-linecap="round" stroke-linejoin="round" stroke-miterlimit="10" stroke-width="7.7986"/>
<path d="m3625.4 3154.1c-84.43 156.62-188.16 259.56-231.7 229.91-3.44-2.34-6.34-5.52-8.84-9.32 50.33-3.06 138.36-98.63 211.81-234.88 77.75-144.25 111.96-283.66 82.87-327.95 7.52-0.46 14.23 1.1 19.89 4.96 43.54 29.65 10.39 180.66-74.03 337.28" fill="#293970"/>
<path d="m3566.6 3215.5c44.91-83.32 62.54-163.65 39.38-179.42-23.16-15.78-78.34 38.98-123.25 122.3-44.91 83.31-62.55 163.64-39.39 179.42 23.16 15.77 78.35-38.99 123.26-122.3" fill="#fff"/>
<path d="m5245.9 2947.4-69.65 248.52c-25.56 91.24-70.38 175.65-129.59 249.61-104.89 131.03-380.41 119.11-380.41 119.11l-211.97-152.54c-0.65-0.35-1.3-0.71-1.95-1.07-124.81-68.87-147.74-175.1-144.46-338.86l7.73-221.11 143.5 137.04 36.22-49.66c-0.16 1.43-0.3 2.76-0.42 4.05l17.15-27-16.73 22.95c5.08-45.62 28.86-161.81 139.46-216.08l63.01-99.15-16.71-137.03c591.35-215.04 738.62 207.21 738.62 207.21l-173.8 254.01" fill="#7ccf7f"/>
<path d="m4428.8 3010.8 77.42-94.7s-10.58-145.94 136.47-192.73" fill="none" stroke="#040606" stroke-linecap="round" stroke-miterlimit="10" stroke-width="10"/>
<path d="m5016.4 2818.1-450.08-392.15s89.13-124.77 129.23-129.23l539.2 343.13" fill="#7ccf7f"/>
<path d="m4700 2546.3s245.09 276.28 329.76 316.39" fill="none" stroke="#040606" stroke-linecap="round" stroke-miterlimit="10" stroke-width="10"/>
<path d="m4900 3116.1s11.7-61.83 90.24-279.07" fill="none" stroke="#040606" stroke-linecap="round" stroke-miterlimit="10" stroke-width="10"/>
<path d="m4758 2332.4s503.55 320.85 508.01 414.43c4.45 93.58-127 528.06-127 528.06" fill="none" stroke="#040606" stroke-linecap="round" stroke-miterlimit="10" stroke-width="10"/>
<path d="m4813.1 2786.9s121.21-11.41 158.76 98.6" fill="none" stroke="#040606" stroke-linecap="round" stroke-miterlimit="10" stroke-width="10"/>
<path d="m4322.3 2868.8s33.42 33.43 66.84-4.45" fill="none" stroke="#040606" stroke-linecap="round" stroke-miterlimit="10" stroke-width="10"/>
<path d="m3925.8 2648.2 71.3 33.42s86.9-94.69 55.7-176.02l-86.89-25.62s40.1 89.13-40.11 168.22" fill="#fff"/>
<path d="m4594.8 2476.1s93.58-40.1 160.42-155.41l-71.85-55.14s-88.57 127-150.4 147.05l61.83 63.5" fill="#fff"/>
<path d="m4516.2 3579 295.22-21.73s11.2-162.39-167.08-305.59l-80.07 77.79-43.61-94.72s-67.75 38.11-76.88 147.51l14.39 132.81 58.03 63.93" fill="#fff"/>
<path d="m4666.3 3564.6c10.77-9.18 15.88-23.32 13.38-37.25-9.48-52.85-38.14-180.77-95.6-196.85-72.66-20.33-117.99 123.18-117.99 123.18l36.23 250.68 163.98-139.76" fill="#f0896f"/>
<path d="m4436.1 3505.2-0.89-36.51c-0.68-0.37-13.09-108.11 23.12-112.27 151.34 27.36 160.86 170.85 173.81 313.25 0 0-210.73-136.05-196.04-164.47" fill="#040606"/>
<path d="m4184.1 3773.9s-36.89-351.48 181.47-411.96c218.36-60.49 270.67 295.61 263.14 418.76s-62.43 168.95-215.46 174.47c-226.42 8.16-229.15-181.27-229.15-181.27" fill="#f0896f"/>
<path d="m4380.3 3604.1c0.62-12.66-5.39-23.24-13.43-23.65s-15.06 9.51-15.68 22.17c-0.63 12.65 5.39 23.23 13.43 23.64s15.06-9.52 15.68-22.16" fill="#040606"/>
<path d="m4404.3 3668.8s-72.14-31.4-79.21 23.14" fill="none" stroke="#040606" stroke-linecap="round" stroke-miterlimit="10" stroke-width="10"/>
<path d="m4237.5 3668.7s-23.83-41.38-51.24-22.99" fill="none" stroke="#040606" stroke-linecap="round" stroke-miterlimit="10" stroke-width="10"/>
<path d="m4199.2 3595.2s13.64 4.4 33.63-6.16" fill="none" stroke="#040606" stroke-linecap="round" stroke-miterlimit="10" stroke-width="10"/>
<path d="m4413 3464.1s19.67 18.81 35.91 23.08" fill="none" stroke="#040606" stroke-linecap="round" stroke-miterlimit="10" stroke-width="10"/>
<path d="m4265.4 3554.7s-12.54-28.5 19.38-42.18" fill="none" stroke="#040606" stroke-linecap="round" stroke-miterlimit="10" stroke-width="10"/>
<path d="m4181.6 3698.4s3.7 102.92 49.3 161.07c0 0 62.7-142.51 332.89-171.58l78.66 16.53s32.21 165.02-80.65 230.01c-112.87 64.98-285.6 29.06-341.16-29.36-94.21-99.06-39.04-206.67-39.04-206.67" fill="#040606"/>
<path d="m4511.3 3706.6 46.74-92.34 33.06 103.74z" fill="#040606"/>
<path d="m4674.7 3623.9c-13.46-49.12-52.11-81.59-86.31-72.52-34.2 9.06-51.01 56.23-37.55 105.35s52.11 81.59 86.31 72.52c34.2-9.06 51.01-56.23 37.55-105.35" fill="#f0896f"/>
<path d="m4640.4 3666.7s-38.47 33.1-59.48-27.42c0 0 22.47-23.85 8.29-42.57 0 0 22.15-5.03 33.08 14.51" fill="none" stroke="#040606" stroke-linecap="round" stroke-linejoin="round" stroke-miterlimit="10" stroke-width="10"/>
<path d="m4623.7 3643.5s-2.14 13.44-17.08 28.79" fill="none" stroke="#040606" stroke-linecap="round" stroke-linejoin="round" stroke-miterlimit="10" stroke-width="10"/>
<path d="m4642.4 3553c0-18.42-14.93-33.35-33.34-33.35-18.42 0-33.35 14.93-33.35 33.35s14.93 33.35 33.35 33.35c18.41 0 33.34-14.93 33.34-33.35" fill="#fff"/>
<path d="m4548.9 3891.3s41.04 214.33 136.81 173.29c95.76-41.05 139.08-246.25 47.88-262.22-91.21-15.96-161.89 27.36-161.89 27.36l-22.8 61.57" fill="#040606"/>
<path d="m4550.1 3829.8s158.47-132.24 209.77-10.25" fill="none" stroke="#040606" stroke-linecap="round" stroke-miterlimit="10" stroke-width="10"/>
<path d="m5148.9 1958.8-183.44 103.53" fill="none" stroke="#333436" stroke-linecap="round" stroke-miterlimit="10" stroke-width="10"/>
<path d="m985.2 3318.4c198.21-5.4 362.21-164.16 373.61-362.12 6.71-116.4-38.4-222.32-114.31-297.05-11.22-11.04-16.43-26.78-13.81-42.3l28.51-168.71-175.41 102.21c-10 5.82-21.77 7.95-33.1 5.67-42.89-8.65-88.315-10.24-135.14-3.15-173.29 26.25-308.49 169.71-324.47 344.25-21.305 232.63 164.5 427.46 394.12 421.2" fill="#c8d7f1"/>
<path d="m950.34 2731.6c0 4.71 1.269 8.62 3.808 11.71 2.539 3.08 5.996 4.63 10.352 4.63 5.078 0 8.711-1.46 10.898-4.36 2.18-2.91 3.262-6.9 3.262-11.98 0-4.36-1.18-8.17-3.535-11.44-2.371-3.27-5.906-4.91-10.625-4.91-4.727 0-8.262 1.46-10.625 4.36-2.363 2.91-3.535 6.9-3.535 11.99zm6.535 68.63-1.086 92.05c13.43 3.27 25.684 7.53 36.758 12.8 11.079 5.26 20.789 11.34 29.139 18.25 8.35 6.89 15.34 14.6 20.98 23.15 5.62 8.52 9.88 17.7 12.8 27.5 2.9 9.8 4.36 20.15 4.36 31.04 0 15.62-3.82 30.32-11.45 44.13-7.62 13.79-18.51 24.96-32.67 33.49s-31.05 12.8-50.659 12.8c-21.063 0-40.574-5.81-58.555-17.43-17.976-11.62-31.687-31.41-41.121-59.37l-9.805 6.54c8.348 26.5 22.332 46.84 41.942 61 19.609 14.17 41.933 21.25 66.992 21.25 21.426 0 40.216-4.55 56.376-13.62 16.15-9.08 28.77-21.34 37.85-36.77s13.63-32.77 13.63-52.02c0-14.52-2.45-28.14-7.36-40.84-4.9-12.72-11.8-24.34-20.7-34.86-8.9-10.54-19.7-19.71-32.41-27.51-12.718-7.82-27.054-13.71-43.031-17.7l-1.082-83.88h-10.898" fill="#040606"/>
</g>
</g>
</svg>
